<?xml version="1.0" encoding="utf-8"?>
<!-- Generator: Adobe Illustrator 25.4.1, SVG Export Plug-In . SVG Version: 6.00 Build 0)  -->
<svg version="1.1" xmlns="http://www.w3.org/2000/svg" xmlns:xlink="http://www.w3.org/1999/xlink" x="0px" y="0px"
	 viewBox="0 0 595.28 841.89" style="enable-background:new 0 0 595.28 841.89;" xml:space="preserve">
<style type="text/css">
	.st0{fill:#662D91;stroke:#000000;stroke-width:2;stroke-linecap:square;stroke-miterlimit:10;}
	.st1{fill:#C49A6C;stroke:#000000;stroke-width:2;stroke-linecap:square;stroke-miterlimit:10;}
	.st2{fill:#39B54A;stroke:#000000;stroke-width:2;stroke-linecap:square;stroke-miterlimit:10;}
	.st3{fill:#CBDB2A;stroke:#000000;stroke-width:2;stroke-linecap:square;stroke-miterlimit:10;}
	.st4{fill:#F7941D;stroke:#000000;stroke-width:2;stroke-linecap:square;stroke-miterlimit:10;}
	.st5{fill:#00ADDC;stroke:#000000;stroke-width:2;stroke-linecap:square;stroke-miterlimit:10;}
	.st6{fill:#FFF200;stroke:#000000;stroke-width:2;stroke-linecap:square;stroke-miterlimit:10;}
	.st7{fill:#ED1C24;stroke:#000000;stroke-width:2;stroke-linecap:square;stroke-miterlimit:10;}
	.st8{fill:#FFFFFF;}
	.st9{font-family:'Arial-BoldMT';}
	.st10{font-size:12px;}
	.st11{font-family:'MyriadPro-Regular';}
	.st12{font-size:14px;}
	.st13{fill:#FFFFFF;stroke:#D1D3D4;stroke-linecap:square;stroke-miterlimit:10;}
	.st14{fill:#ED1C24;}
	.st15{fill:#00AEEF;}
	.st16{fill:#662D91;}
	.st17{fill:#FFF200;}
	.st18{fill:#F7941D;}
	.st19{font-family:'MyriadPro-Bold';}
	.st20{font-size:30px;}
	.st21{display:none;}
	.st22{fill:#D1D3D4;}
	.st23{fill:#A7A9AC;}
	.st24{fill:none;stroke:#000000;stroke-width:3;stroke-linecap:square;stroke-miterlimit:10;}
</style>
<g id="Omschrijving__x28_Student_x29_">
	<g id="Cirkels">
		<circle class="st0" cx="268.46" cy="779.52" r="11.34"/>
		<circle class="st1" cx="132.4" cy="779.52" r="11.34"/>
		<circle class="st2" cx="404.52" cy="737.75" r="11.34"/>
		<circle class="st3" cx="268.46" cy="737.75" r="11.34"/>
		<circle class="st4" cx="132.4" cy="737.75" r="11.34"/>
		<circle class="st5" cx="404.52" cy="695.98" r="11.34"/>
		<circle class="st6" cx="268.46" cy="695.98" r="11.34"/>
		<circle class="st7" cx="132.4" cy="695.98" r="11.34"/>
	</g>
	<g id="Noemers">
		<text id="_x2A_8_2_" transform="matrix(1 0 0 1 265.1216 783.5186)" class="st8 st9 st10">8</text>
		<text id="_x2A_7_2_" transform="matrix(1 0 0 1 129.0586 783.5186)" class="st9 st10">7</text>
		<text id="_x2A_6_1_" transform="matrix(1 0 0 1 401.1849 741.7474)" class="st9 st10">6</text>
		<text id="_x2A_5_1_" transform="matrix(1 0 0 1 265.1218 741.7474)" class="st9 st10">5</text>
		<text id="_x2A_4_1_" transform="matrix(1 0 0 1 129.0588 741.7474)" class="st9 st10">4</text>
		<text id="_x2A_3_2_" transform="matrix(1 0 0 1 401.1851 699.9761)" class="st9 st10">3</text>
		<text id="_x2A_2_2_" transform="matrix(1 0 0 1 265.122 699.9761)" class="st9 st10">2</text>
		<text id="_x2A_1_2_" transform="matrix(1 0 0 1 129.0589 699.9761)" class="st8 st9 st10">1</text>
	</g>
	<g id="Omschrijvingen">
		<text id="_x23_9" transform="matrix(1.227 0 0 1 288.6328 786.5197)" class="st11 st12">Chaos-uren</text>
		<text id="_x23_7" transform="matrix(1.227 0 0 1 151.404 786.5196)" class="st11 st12">Bijbaan</text>
		<text id="_x23_5" transform="matrix(1.227 0 0 1 287.4666 744.7479)" class="st11 st12">Vrienden</text>
		<text id="_x23_5_1_" transform="matrix(1.227 0 0 1 424.6951 744.7479)" class="st11 st12">Hobby</text>
		<text id="_x23_4_1_" transform="matrix(1.227 0 0 1 151.4038 744.748)" class="st11 st12">Huiswerk</text>
		<text id="_x23_3" transform="matrix(1.227 0 0 1 423.5292 702.9761)" class="st11 st12">Slapen</text>
		<text id="_x23_2" transform="matrix(1.227 0 0 1 287.4664 702.9763)" class="st11 st12">Sport</text>
		<text id="_x23_1" transform="matrix(1.227 0 0 1 151.4033 700.0391)" class="st11 st12">Rooster GLU</text>
	</g>
</g>
<g id="Tijdvakken__x28_Student_x29__Resultaat">
	<g id="Zondag_2_">
		<rect x="113.55" y="589.68" class="st13" width="34.02" height="70.87"/>
		<rect x="147.57" y="589.68" class="st13" width="34.02" height="70.87"/>
		<rect x="181.58" y="589.68" class="st13" width="34.02" height="70.87"/>
		<rect x="215.6" y="589.68" class="st13" width="34.02" height="70.87"/>
		<rect x="249.62" y="589.68" class="st13" width="34.02" height="70.87"/>
		<rect x="283.63" y="589.68" class="st13" width="34.02" height="70.87"/>
		<rect x="317.65" y="589.68" class="st13" width="34.02" height="70.87"/>
		<rect x="351.66" y="589.68" class="st13" width="34.02" height="70.87"/>
		<rect x="385.68" y="589.68" class="st13" width="34.02" height="70.87"/>
		<rect x="419.7" y="589.68" class="st13" width="34.02" height="70.87"/>
		<rect x="453.71" y="589.68" class="st13" width="34.02" height="70.87"/>
		<rect x="487.73" y="589.68" class="st13" width="34.02" height="70.87"/>
	</g>
	<g id="Zaterdag_2_">
		<rect x="113.55" y="518.81" class="st13" width="34.02" height="70.87"/>
		<rect x="147.57" y="518.81" class="st13" width="34.02" height="70.87"/>
		<rect x="181.58" y="518.81" class="st13" width="34.02" height="70.87"/>
		<rect x="215.6" y="518.81" class="st13" width="34.02" height="70.87"/>
		<rect x="249.62" y="518.81" class="st13" width="34.02" height="70.87"/>
		<rect x="283.63" y="518.81" class="st13" width="34.02" height="70.87"/>
		<rect x="317.65" y="518.81" class="st13" width="34.02" height="70.87"/>
		<rect x="351.66" y="518.81" class="st13" width="34.02" height="70.87"/>
		<rect x="385.68" y="518.81" class="st13" width="34.02" height="70.87"/>
		<rect x="419.7" y="518.81" class="st13" width="34.02" height="70.87"/>
		<rect x="453.71" y="518.81" class="st13" width="34.02" height="70.87"/>
		<rect x="487.73" y="518.81" class="st13" width="34.02" height="70.87"/>
	</g>
	<g id="Vrijdag_2_">
		<rect x="113.55" y="447.95" class="st13" width="34.02" height="70.87"/>
		<rect x="147.57" y="447.95" class="st13" width="34.02" height="70.87"/>
		<rect x="181.58" y="447.95" class="st13" width="34.02" height="70.87"/>
		<rect x="215.6" y="447.95" class="st13" width="34.02" height="70.87"/>
		<rect x="249.62" y="447.95" class="st13" width="34.02" height="70.87"/>
		<rect x="283.63" y="447.95" class="st13" width="34.02" height="70.87"/>
		<rect x="317.65" y="447.95" class="st13" width="34.02" height="70.87"/>
		<rect x="351.66" y="447.95" class="st13" width="34.02" height="70.87"/>
		<rect x="385.68" y="447.95" class="st13" width="34.02" height="70.87"/>
		<rect x="419.7" y="447.95" class="st13" width="34.02" height="70.87"/>
		<rect x="453.71" y="447.95" class="st13" width="34.02" height="70.87"/>
		<rect x="487.73" y="447.95" class="st13" width="34.02" height="70.87"/>
	</g>
	<g id="Donderdag_2_">
		<rect x="113.55" y="377.08" class="st13" width="34.02" height="70.87"/>
		<rect x="147.57" y="377.08" class="st13" width="34.02" height="70.87"/>
		<rect x="181.58" y="377.08" class="st13" width="34.02" height="70.87"/>
		<rect x="215.6" y="377.08" class="st13" width="34.02" height="70.87"/>
		<rect x="249.62" y="377.08" class="st13" width="34.02" height="70.87"/>
		<rect x="283.63" y="377.08" class="st13" width="34.02" height="70.87"/>
		<rect x="317.65" y="377.08" class="st13" width="34.02" height="70.87"/>
		<rect x="351.66" y="377.08" class="st13" width="34.02" height="70.87"/>
		<rect x="385.68" y="377.08" class="st13" width="34.02" height="70.87"/>
		<rect x="419.7" y="377.08" class="st13" width="34.02" height="70.87"/>
		<rect x="453.71" y="377.08" class="st13" width="34.02" height="70.87"/>
		<rect x="487.73" y="377.08" class="st13" width="34.02" height="70.87"/>
	</g>
	<g id="Woensdag_2_">
		<rect x="113.55" y="306.21" class="st13" width="34.02" height="70.87"/>
		<rect x="147.57" y="306.21" class="st13" width="34.02" height="70.87"/>
		<rect x="181.58" y="306.21" class="st13" width="34.02" height="70.87"/>
		<rect x="215.6" y="306.21" class="st13" width="34.02" height="70.87"/>
		<rect x="249.62" y="306.21" class="st13" width="34.02" height="70.87"/>
		<rect x="283.63" y="306.21" class="st13" width="34.02" height="70.87"/>
		<rect x="317.65" y="306.21" class="st13" width="34.02" height="70.87"/>
		<rect x="351.66" y="306.21" class="st13" width="34.02" height="70.87"/>
		<rect x="385.68" y="306.21" class="st13" width="34.02" height="70.87"/>
		<rect x="419.7" y="306.21" class="st13" width="34.02" height="70.87"/>
		<rect x="453.71" y="306.21" class="st13" width="34.02" height="70.87"/>
		<rect x="487.73" y="306.21" class="st13" width="34.02" height="70.87"/>
	</g>
	<g id="Dinsdag_2_">
		<rect x="113.55" y="235.35" class="st13" width="34.02" height="70.87"/>
		<rect x="147.57" y="235.35" class="st13" width="34.02" height="70.87"/>
		<rect x="181.58" y="235.35" class="st13" width="34.02" height="70.87"/>
		<rect x="215.6" y="235.35" class="st13" width="34.02" height="70.87"/>
		<rect x="249.62" y="235.35" class="st13" width="34.02" height="70.87"/>
		<rect x="283.63" y="235.35" class="st13" width="34.02" height="70.87"/>
		<rect x="317.65" y="235.35" class="st13" width="34.02" height="70.87"/>
		<rect x="351.66" y="235.35" class="st13" width="34.02" height="70.87"/>
		<rect x="385.68" y="235.35" class="st13" width="34.02" height="70.87"/>
		<rect x="419.7" y="235.35" class="st13" width="34.02" height="70.87"/>
		<rect x="453.71" y="235.35" class="st13" width="34.02" height="70.87"/>
		<rect x="487.73" y="235.35" class="st13" width="34.02" height="70.87"/>
	</g>
	<g id="Maandag_2_">
		<rect x="113.55" y="164.48" class="st13" width="34.02" height="70.87"/>
		<rect x="147.57" y="164.48" class="st13" width="34.02" height="70.87"/>
		<rect x="181.58" y="164.48" class="st13" width="34.02" height="70.87"/>
		<rect x="215.6" y="164.48" class="st13" width="34.02" height="70.87"/>
		<rect x="249.62" y="164.48" class="st13" width="34.02" height="70.87"/>
		<rect x="283.63" y="164.48" class="st13" width="34.02" height="70.87"/>
		<rect x="317.65" y="164.48" class="st13" width="34.02" height="70.87"/>
		<rect x="351.66" y="164.48" class="st13" width="34.02" height="70.87"/>
		<rect x="385.68" y="164.48" class="st13" width="34.02" height="70.87"/>
		<rect x="419.7" y="164.48" class="st13" width="34.02" height="70.87"/>
		<rect x="453.71" y="164.48" class="st13" width="34.02" height="70.87"/>
		<rect x="487.73" y="164.48" class="st13" width="34.02" height="70.87"/>
	</g>
</g>
<g id="Tijdvakken__x28_Student_x29__Doelstelling">
	<g id="Zondag">
	</g>
	<g id="Zaterdag">
	</g>
	<g id="Vrijdag">
		<rect x="199.15" y="377.17" class="st14" width="16.45" height="71.56"/>
		<rect x="182.64" y="377.17" class="st14" width="16.45" height="71.56"/>
		<rect x="165.13" y="377.17" class="st14" width="16.45" height="71.56"/>
		<rect x="148.62" y="377.17" class="st14" width="16.45" height="71.56"/>
		<rect x="114.6" y="377.17" class="st15" width="16.45" height="71.56"/>
		<rect x="284.16" y="377.17" class="st14" width="16.45" height="71.56"/>
		<rect x="266.65" y="377.17" class="st14" width="16.45" height="71.56"/>
		<rect x="250.14" y="377.17" class="st14" width="16.45" height="71.56"/>
		<rect x="232.64" y="377.17" class="st14" width="16.45" height="71.56"/>
		<rect x="216.13" y="377.17" class="st14" width="16.45" height="71.56"/>
		<rect x="504.76" y="377.17" class="st15" width="16.45" height="71.56"/>
		<rect x="488.25" y="377.17" class="st15" width="16.45" height="71.56"/>
		<rect x="470.75" y="377.17" class="st15" width="16.45" height="71.56"/>
		<rect x="454.24" y="377.17" class="st15" width="16.45" height="71.56"/>
		<rect x="436.73" y="377.17" class="st15" width="16.45" height="71.56"/>
		<rect x="420.22" y="377.17" class="st15" width="16.45" height="71.56"/>
		<rect x="300.67" y="377.17" class="st16" width="14.05" height="71.56"/>
		<rect x="199.15" y="447.6" class="st14" width="16.45" height="71.56"/>
		<rect x="182.64" y="447.6" class="st14" width="16.45" height="71.56"/>
		<rect x="165.13" y="447.6" class="st14" width="16.45" height="71.56"/>
		<rect x="148.62" y="447.6" class="st14" width="16.45" height="71.56"/>
		<rect x="131.11" y="447.6" class="st14" width="16.45" height="71.56"/>
		<rect x="114.6" y="447.6" class="st15" width="16.45" height="71.56"/>
		<rect x="284.16" y="447.6" class="st14" width="16.45" height="71.56"/>
		<rect x="266.65" y="447.6" class="st14" width="16.45" height="71.56"/>
		<rect x="250.14" y="447.6" class="st14" width="16.45" height="71.56"/>
		<rect x="232.64" y="447.6" class="st14" width="16.45" height="71.56"/>
		<rect x="216.13" y="447.6" class="st14" width="16.45" height="71.56"/>
		<rect x="504.76" y="447.6" class="st15" width="16.45" height="71.56"/>
		<rect x="488.25" y="447.6" class="st15" width="16.45" height="71.56"/>
		<rect x="470.75" y="447.6" class="st15" width="16.45" height="71.56"/>
		<rect x="454.24" y="447.6" class="st15" width="16.45" height="71.56"/>
		<rect x="436.73" y="447.6" class="st15" width="16.45" height="71.56"/>
		<rect x="420.22" y="447.6" class="st15" width="16.45" height="71.56"/>
		<rect x="199.15" y="518.68" class="st17" width="16.45" height="71.56"/>
		<rect x="182.64" y="518.68" class="st17" width="16.45" height="71.56"/>
		<rect x="147.57" y="518.68" class="st17" width="34.02" height="71.56"/>
		<rect x="131.11" y="518.68" class="st15" width="16.45" height="71.56"/>
		<rect x="114.6" y="518.68" class="st15" width="16.45" height="71.56"/>
		<rect x="300.67" y="518.68" class="st17" width="118.24" height="71.56"/>
		<rect x="284.16" y="518.68" class="st17" width="16.45" height="71.56"/>
		<rect x="266.65" y="518.68" class="st17" width="16.45" height="71.56"/>
		<rect x="250.14" y="518.68" class="st17" width="16.45" height="71.56"/>
		<rect x="232.64" y="518.68" class="st17" width="16.45" height="71.56"/>
		<rect x="216.13" y="518.68" class="st17" width="16.45" height="71.56"/>
		<rect x="504.76" y="518.68" class="st15" width="16.45" height="71.56"/>
		<rect x="488.25" y="518.68" class="st15" width="16.45" height="71.56"/>
		<rect x="470.75" y="518.68" class="st15" width="16.45" height="71.56"/>
		<rect x="454.24" y="518.68" class="st15" width="16.45" height="71.56"/>
		<rect x="436.73" y="518.68" class="st15" width="16.45" height="71.56"/>
		<rect x="420.22" y="518.68" class="st15" width="16.45" height="71.56"/>
		<rect x="165.13" y="164.24" class="st15" width="16.45" height="71.56"/>
		<rect x="148.62" y="164.24" class="st15" width="16.45" height="71.56"/>
		<rect x="131.11" y="164.24" class="st15" width="16.45" height="71.56"/>
		<rect x="114.6" y="164.24" class="st15" width="16.45" height="71.56"/>
		<rect x="182.64" y="164.24" class="st16" width="134.49" height="71.56"/>
		<rect x="504.76" y="164.24" class="st15" width="16.45" height="71.56"/>
		<rect x="488.25" y="164.24" class="st15" width="16.45" height="71.56"/>
		<rect x="470.75" y="164.24" class="st15" width="16.45" height="71.56"/>
		<rect x="454.24" y="164.24" class="st15" width="16.45" height="71.56"/>
		<rect x="420.22" y="161.65" class="st16" width="32.01" height="71.56"/>
		<rect x="317.91" y="164.24" class="st16" width="51.85" height="71.56"/>
		<rect x="199.15" y="234.68" class="st14" width="16.45" height="71.56"/>
		<rect x="182.64" y="234.68" class="st14" width="16.45" height="71.56"/>
		<rect x="165.13" y="234.68" class="st14" width="16.45" height="71.56"/>
		<rect x="148.62" y="234.68" class="st14" width="16.45" height="71.56"/>
		<rect x="131.11" y="234.68" class="st14" width="16.45" height="71.56"/>
		<rect x="114.6" y="234.68" class="st15" width="16.45" height="71.56"/>
		<rect x="250.14" y="234.68" class="st14" width="16.45" height="71.56"/>
		<rect x="232.64" y="234.68" class="st14" width="16.45" height="71.56"/>
		<rect x="216.13" y="234.68" class="st14" width="16.45" height="71.56"/>
		<rect x="504.76" y="234.68" class="st15" width="16.45" height="71.56"/>
		<rect x="488.25" y="234.68" class="st15" width="16.45" height="71.56"/>
		<rect x="470.75" y="234.68" class="st15" width="16.45" height="71.56"/>
		<rect x="454.24" y="234.68" class="st15" width="16.45" height="71.56"/>
		<rect x="436.73" y="234.68" class="st15" width="16.45" height="71.56"/>
		<rect x="420.22" y="234.68" class="st15" width="16.45" height="71.56"/>
		<rect x="199.15" y="305.76" class="st14" width="16.45" height="71.56"/>
		<rect x="182.64" y="305.76" class="st14" width="16.45" height="71.56"/>
		<rect x="165.13" y="305.76" class="st14" width="16.45" height="71.56"/>
		<rect x="148.62" y="305.76" class="st14" width="16.45" height="71.56"/>
		<rect x="131.11" y="305.76" class="st14" width="16.45" height="71.56"/>
		<rect x="114.6" y="305.76" class="st15" width="16.45" height="71.56"/>
		<rect x="284.16" y="305.76" class="st14" width="16.45" height="71.56"/>
		<rect x="266.65" y="305.76" class="st14" width="16.45" height="71.56"/>
		<rect x="250.14" y="305.76" class="st14" width="16.45" height="71.56"/>
		<rect x="232.64" y="305.76" class="st14" width="16.45" height="71.56"/>
		<rect x="216.13" y="305.76" class="st14" width="16.45" height="71.56"/>
		<rect x="504.76" y="305.76" class="st15" width="16.45" height="71.56"/>
		<rect x="488.25" y="305.76" class="st15" width="16.45" height="71.56"/>
		<rect x="470.75" y="305.76" class="st15" width="16.45" height="71.56"/>
		<rect x="454.24" y="305.76" class="st15" width="16.45" height="71.56"/>
		<rect x="436.73" y="305.76" class="st15" width="16.45" height="71.56"/>
		<rect x="420.22" y="305.76" class="st15" width="16.45" height="71.56"/>
		<rect x="384.89" y="305.76" class="st16" width="34.02" height="71.56"/>
		<rect x="317.91" y="305.76" class="st18" width="66.98" height="71.56"/>
		<rect x="199.15" y="589.12" class="st18" width="16.45" height="71.56"/>
		<rect x="182.64" y="589.12" class="st18" width="16.45" height="71.56"/>
		<rect x="165.13" y="589.12" class="st18" width="16.45" height="71.56"/>
		<rect x="148.62" y="589.12" class="st18" width="16.45" height="71.56"/>
		<rect x="131.11" y="589.12" class="st18" width="16.45" height="71.56"/>
		<rect x="114.6" y="589.12" class="st15" width="16.45" height="71.56"/>
		<rect x="250.14" y="589.12" class="st18" width="67.51" height="71.56"/>
		<rect x="232.64" y="589.12" class="st18" width="16.45" height="71.56"/>
		<rect x="216.13" y="589.12" class="st18" width="16.45" height="71.56"/>
		<rect x="504.76" y="589.12" class="st15" width="16.45" height="71.56"/>
		<rect x="488.25" y="589.12" class="st15" width="16.45" height="71.56"/>
		<rect x="470.75" y="589.12" class="st15" width="16.45" height="71.56"/>
		<rect x="454.24" y="589.12" class="st15" width="16.45" height="71.56"/>
		<rect x="436.73" y="589.12" class="st15" width="16.45" height="71.56"/>
		<rect x="420.22" y="589.12" class="st15" width="16.45" height="71.56"/>
		<rect x="402.45" y="589.12" class="st16" width="16.45" height="71.56"/>
		<rect x="385.94" y="589.12" class="st16" width="16.45" height="71.56"/>
		<rect x="368.44" y="589.12" class="st16" width="16.45" height="71.56"/>
		<rect x="351.93" y="589.12" class="st16" width="16.45" height="71.56"/>
		<rect x="334.42" y="589.12" class="st16" width="16.45" height="71.56"/>
		<rect x="317.91" y="589.12" class="st16" width="16.45" height="71.56"/>
		<text transform="matrix(1 0 0 1 106.3417 91.22)" class="st19 st20">Balansmeter</text>
		<g>
			<g>
				<path d="M-397.68,326.19c-0.53,0.08,0.52-0.06-0.15,0.02c-0.21,0.02-0.43,0.04-0.64,0.06c-0.37,0.03-0.73,0.05-1.1,0.07
					c-0.79,0.03-1.59,0.02-2.39-0.03c-0.37-0.02-0.73-0.06-1.1-0.1c-0.12-0.01-0.24-0.03-0.36-0.04c0.33,0.05,0.4,0.05,0.21,0.03
					c-0.21-0.03-0.42-0.06-0.63-0.1c-0.78-0.14-1.56-0.32-2.33-0.53c-1.26-0.35-2.78,0.43-3.08,1.75c-0.3,1.32,0.4,2.7,1.75,3.08
					c3.66,1.02,7.41,1.17,11.15,0.63c0.58-0.08,1.22-0.67,1.49-1.15c0.31-0.54,0.45-1.33,0.25-1.93c-0.2-0.6-0.57-1.19-1.15-1.49
					C-396.38,326.1-396.97,326.08-397.68,326.19L-397.68,326.19z"/>
			</g>
		</g>
		<g>
			<g>
				<path d="M390.76,188.22c-0.65,8.91,0.78,17.95,4.18,26.21c0.51,1.25,1.66,2.13,3.08,1.75c1.32-0.36,2.09-1.77,1.75-3.08
					c-2-7.56-3.11-15.28-3.31-23.1c-0.08-3.21-5.08-3.22-5,0c0.21,8.24,1.38,16.46,3.49,24.43c1.61-0.44,3.21-0.89,4.82-1.33
					c-3.25-7.91-4.62-16.35-4-24.88c0.1-1.35-1.22-2.5-2.5-2.5C391.82,185.72,390.85,186.87,390.76,188.22L390.76,188.22z"/>
			</g>
		</g>
		<g>
			<g>
				<path d="M390.79,183.78c-0.48,6.17-0.17,12.34,0.78,18.46c0.21,1.34,1.88,2.07,3.08,1.75c1.42-0.39,1.96-1.74,1.75-3.08
					c-0.88-5.66-1.04-11.42-0.6-17.13c0.1-1.35-1.22-2.5-2.5-2.5C391.85,181.28,390.89,182.43,390.79,183.78L390.79,183.78z"/>
			</g>
		</g>
		<g>
			<g>
				<path d="M855.44,207.94c-1.19,0-2.37,0-3.56,0c-0.64,0-1.31,0.28-1.77,0.73c-0.24,0.23-0.42,0.49-0.52,0.8
					c-0.16,0.3-0.23,0.62-0.22,0.96c0.03,0.65,0.24,1.32,0.73,1.77c0.49,0.45,1.09,0.73,1.77,0.73c1.19,0,2.37,0,3.56,0
					c0.64,0,1.31-0.28,1.77-0.73c0.24-0.23,0.42-0.49,0.52-0.8c0.16-0.3,0.23-0.62,0.22-0.96c-0.03-0.65-0.24-1.32-0.73-1.77
					C856.72,208.23,856.12,207.94,855.44,207.94L855.44,207.94z"/>
			</g>
		</g>
		<g>
			<g>
				<path d="M668.78,212.94c3.22,0,3.22-5,0-5C665.56,207.94,665.56,212.94,668.78,212.94L668.78,212.94z"/>
			</g>
		</g>
		<rect x="368.8" y="161.65" class="st14" width="50.89" height="71.56"/>
		<rect x="266.2" y="234.35" class="st16" width="152.71" height="71.56"/>
		<rect x="300.67" y="445.33" class="st16" width="118.24" height="71.56"/>
		<rect x="301.12" y="305.87" class="st16" width="16" height="71.56"/>
		<rect x="316.31" y="376.74" class="st18" width="66.98" height="71.56"/>
		<rect x="384.49" y="379.66" class="st16" width="34.02" height="71.56"/>
		<rect x="131.11" y="377.17" class="st14" width="16.45" height="71.56"/>
		<rect x="301.06" y="516.14" class="st16" width="118.24" height="71.56"/>
	</g>
	<g id="Donderdag">
	</g>
	<g id="Woensdag">
	</g>
	<g id="Dinsdag" class="st21">
	</g>
	<g id="Maandag">
	</g>
</g>
<g id="Ontwerp">
	<g id="Overige__x5B_aan_x2F_uit_x5D_">
		<text transform="matrix(0 -1 1 0 390.6794 146.7637)" class="st22 st11 st10">22:00</text>
		<text transform="matrix(0 -1 1 0 356.6641 146.7637)" class="st22 st11 st10">20:00</text>
		<text transform="matrix(0 -1 1 0 288.6324 146.7637)" class="st22 st11 st10">16:00</text>
		<text transform="matrix(0 -1 1 0 254.617 146.7637)" class="st22 st11 st10">14:00</text>
		<text transform="matrix(0 -1 1 0 186.5851 146.7637)" class="st22 st11 st10">10:00</text>
		<text transform="matrix(0 -1 1 0 152.5697 146.7637)" class="st22 st11 st10">08:00</text>
		<text transform="matrix(0 -1 1 0 526.7427 146.7637)" class="st22 st11 st10">06:00</text>
		<text transform="matrix(0 -1 1 0 492.7268 146.7637)" class="st22 st11 st10">04:00</text>
		<text transform="matrix(0 -1 1 0 458.7114 146.7637)" class="st22 st11 st10">02:00</text>
	</g>
	<g id="Hoofdtijden">
		<text transform="matrix(0 -1 1 0 424.6953 146.7637)" class="st11 st10">00:00</text>
		<text transform="matrix(0 -1 1 0 322.6483 146.7637)" class="st11 st10">18:00</text>
		<text transform="matrix(0 -1 1 0 220.6009 146.7637)" class="st11 st10">12:00</text>
		<text transform="matrix(0 -1 1 0 118.5535 146.7637)" class="st11 st10">06:00</text>
	</g>
	<g id="Dagen">
		<g>
			<text transform="matrix(1 0 0 1 53.8062 625.1126)" class="st11 st12">Zondag</text>
		</g>
		<g>
			<text transform="matrix(1 0 0 1 46.2888 554.2461)" class="st11 st12">Zaterdag</text>
		</g>
		<g>
			<text transform="matrix(1 0 0 1 57.9365 483.3795)" class="st11 st12">Vrijdag</text>
		</g>
		<g>
			<text transform="matrix(1 0 0 1 32.737 412.513)" class="st11 st12">Donderdag</text>
		</g>
		<g>
			<text transform="matrix(1 0 0 1 37.1473 341.6464)" class="st11 st12">Woensdag</text>
		</g>
		<g>
			<text transform="matrix(1 0 0 1 51.0914 270.7798)" class="st11 st12">Dinsdag</text>
		</g>
		<g>
			<text transform="matrix(1 0 0 1 44.4837 199.9133)" class="st11 st12">Maandag</text>
		</g>
	</g>
	<g id="Inline_2_">
		<path d="M521.74,164.48v70.87v70.87v70.87v70.87v70.87v70.87v70.87H419.7H317.65H215.6H113.55v-70.87v-70.87v-70.87v-70.87v-70.87
			v-70.87v-70.87H215.6h102.05H419.7H521.74 M521.74,161.48H419.7H317.65H215.6H113.55l-3,3v70.87v70.87v70.87v70.87v70.87v70.87
			v70.87l3,3H215.6h102.05H419.7h102.05l3-3v-70.87v-70.87v-70.87v-70.87v-70.87v-70.87v-70.87L521.74,161.48L521.74,161.48z"/>
	</g>
	<g id="Outline_3_">
		<path class="st23" d="M521.74,161.65l2.83,2.83v496.06l-2.83,2.84H113.55l-2.83-2.84V164.48l2.83-2.83H521.74 M522.16,160.65
			h-0.41H113.55h-0.41l-0.29,0.29l-2.83,2.83l-0.29,0.29v0.41v496.06v0.41l0.29,0.29l2.83,2.84l0.29,0.29h0.41h408.19h0.41
			l0.29-0.29l2.83-2.84l0.29-0.29v-0.41V164.48v-0.41l-0.29-0.29l-2.83-2.83L522.16,160.65L522.16,160.65z"/>
	</g>
	<g id="Dagdelen">
		<rect x="113.55" y="164.48" class="st24" width="102.05" height="70.87"/>
		<rect x="215.6" y="164.48" class="st24" width="102.05" height="70.87"/>
		<rect x="317.65" y="164.48" class="st24" width="102.05" height="70.87"/>
		<rect x="419.7" y="164.48" class="st24" width="102.05" height="70.87"/>
		<rect x="113.55" y="235.35" class="st24" width="102.05" height="70.87"/>
		<rect x="215.6" y="235.35" class="st24" width="102.05" height="70.87"/>
		<rect x="317.65" y="235.35" class="st24" width="102.05" height="70.87"/>
		<rect x="419.7" y="235.35" class="st24" width="102.05" height="70.87"/>
		<rect x="113.55" y="306.21" class="st24" width="102.05" height="70.87"/>
		<rect x="215.6" y="306.21" class="st24" width="102.05" height="70.87"/>
		<rect x="317.65" y="306.21" class="st24" width="102.05" height="70.87"/>
		<rect x="419.7" y="306.21" class="st24" width="102.05" height="70.87"/>
		<rect x="113.55" y="377.08" class="st24" width="102.05" height="70.87"/>
		<rect x="215.6" y="377.08" class="st24" width="102.05" height="70.87"/>
		<rect x="317.65" y="377.08" class="st24" width="102.05" height="70.87"/>
		<rect x="419.7" y="377.08" class="st24" width="102.05" height="70.87"/>
		<rect x="113.55" y="447.95" class="st24" width="102.05" height="70.87"/>
		<rect x="215.6" y="447.95" class="st24" width="102.05" height="70.87"/>
		<rect x="317.65" y="447.95" class="st24" width="102.05" height="70.87"/>
		<rect x="419.7" y="447.95" class="st24" width="102.05" height="70.87"/>
		<rect x="113.55" y="518.81" class="st24" width="102.05" height="70.87"/>
		<rect x="215.6" y="518.81" class="st24" width="102.05" height="70.87"/>
		<rect x="317.65" y="518.81" class="st24" width="102.05" height="70.87"/>
		<rect x="419.7" y="518.81" class="st24" width="102.05" height="70.87"/>
		<rect x="113.55" y="589.68" class="st24" width="102.05" height="70.87"/>
		<rect x="215.6" y="589.68" class="st24" width="102.05" height="70.87"/>
		<rect x="317.65" y="589.68" class="st24" width="102.05" height="70.87"/>
		<rect x="419.7" y="589.68" class="st24" width="102.05" height="70.87"/>
	</g>
</g>
</svg>
